PathFileType	4	(X/Y/Z)	S1_rest_med_right.trc
DataRate	CameraRate	NumFrames	NumMarkers	Units	OrigDataRate	OrigDataStartFrame	OrigNumFrames
250.00	250.00	19	18	mm	250.00	6161	24643
Frame#	Time	c7	r_should	l_should	clavicle	r_upa	r_elb_l	r_elb_m	r_low	r_wri_l	r_wri_m	r_met	l_upa	l_elb_l	l_elb_m	l_low	l_wri_l	l_wri_m	l_met
	X1	Y1	Z1	X2	Y2	Z2	X3	Y3	Z3	X4	Y4	Z4	X5	Y5	Z5	X6	Y6	Z6	X7	Y7	Z7	X8	Y8	Z8	X9	Y9	Z9	X10	Y10	Z10	X11	Y11	Z11	X12	Y12	Z12	X13	Y13	Z13	X14	Y14	Z14	X15	Y15	Z15	X16	Y16	Z16	X17	Y17	Z17	X18	Y18	Z18
6161	24.64000	398.83664	1417.01770	80.07578	454.52692	1363.31116	244.74341	448.96030	1367.05469	-116.41320	544.90039	1307.09912	58.16483	509.15189	1163.04504	290.81662	537.95752	1118.75439	297.00204	540.87378	1059.56909	201.43730	639.09467	1134.37146	246.56088	659.64386	1242.56677	257.02704	671.98309	1222.16418	184.86824	727.28186	1270.93835	272.15707	441.66245	1154.27661	-179.07121	449.69403	1073.58765	-194.81723	380.51929	1041.03967	-127.86260	443.50711	927.75024	-203.51111	531.45276	863.41809	-148.39876	481.57401	833.28021	-195.51299	576.14825	794.33978	-163.68544
6162	24.64400	398.72763	1416.99170	80.03168	454.49057	1363.28821	244.67976	448.85281	1367.01379	-116.47798	544.85870	1307.12720	58.09277	509.35309	1163.11902	290.73767	538.10883	1118.88257	296.90262	541.19733	1059.70203	201.29840	639.04120	1134.75671	246.43527	659.24738	1243.10132	256.84320	671.38831	1222.93140	184.62701	726.02332	1271.72974	272.54514	441.68680	1154.21411	-179.09016	449.74469	1073.53821	-194.83012	380.59180	1040.96558	-127.86701	443.65277	927.69672	-203.50517	531.65405	863.41870	-148.39096	481.78473	833.23981	-195.49117	576.38251	794.36566	-163.66306
6163	24.64800	398.62680	1416.95190	79.99034	454.46347	1363.26953	244.62047	448.74350	1366.98071	-116.53738	544.81818	1307.15796	58.01465	509.54388	1163.19543	290.66391	538.25110	1119.01001	296.81039	541.49475	1059.84058	201.13898	638.99103	1135.14331	246.32678	658.86200	1243.62439	256.67157	670.98334	1223.54089	184.42497	725.33258	1272.49109	272.52274	441.70303	1154.15771	-179.11186	449.79691	1073.48462	-194.84671	380.66760	1040.89294	-127.87234	443.79321	927.63995	-203.49358	531.84808	863.42743	-148.38750	481.98166	833.20178	-195.47987	576.61664	794.40009	-163.66272
6164	24.65200	398.52835	1416.90662	79.94163	454.43808	1363.24890	244.55101	448.63766	1366.94580	-116.59490	544.78198	1307.19067	57.93278	509.73041	1163.29004	290.64822	538.38208	1119.13611	296.71478	541.64575	1059.97083	200.89604	639.39764	1135.92432	245.24080	658.52795	1244.10925	256.50500	670.63580	1224.09302	184.23621	724.79602	1273.26416	272.36646	441.71997	1154.10559	-179.12920	449.84015	1073.43909	-194.86635	380.73871	1040.82520	-127.87710	443.92981	927.58661	-203.48135	532.04059	863.43732	-148.38503	482.16437	833.17438	-195.46959	576.85938	794.44354	-163.65224
6165	24.65600	398.43225	1416.86621	79.89670	454.39883	1363.23779	244.47003	448.52838	1366.92029	-116.65811	544.74213	1307.22351	57.84870	509.92209	1163.40869	290.70190	538.50854	1119.26025	296.61673	541.74646	1060.09424	200.65244	640.40967	1137.23169	242.93388	658.20947	1244.57397	256.35907	670.32080	1224.64746	184.05212	724.29388	1274.03760	272.19919	441.72595	1154.05566	-179.15144	450.11230	1073.31946	-194.89409	380.79651	1040.75720	-127.87428	444.06580	927.54071	-203.48326	532.23169	863.45087	-148.38594	482.35159	833.15143	-195.45430	577.09406	794.49084	-163.64882
6166	24.66000	398.36887	1416.79370	79.84166	454.36093	1363.23413	244.38440	448.41342	1366.89258	-116.72006	544.70483	1307.25671	57.76549	510.07523	1163.51355	290.67310	538.63177	1119.38574	296.53528	542.08960	1060.22925	200.62239	640.66895	1137.87366	242.24316	657.88220	1245.03320	256.20572	670.00555	1225.16211	183.89661	723.86224	1274.76855	272.04568	441.73230	1154.00122	-179.16425	450.62527	1073.11426	-194.91553	380.85211	1040.68347	-127.87053	444.18671	927.49481	-203.47636	532.41101	863.47089	-148.38913	482.53564	833.12378	-195.44507	577.31879	794.53491	-163.65585
6167	24.66400	398.30350	1416.70691	79.77804	454.32336	1363.23511	244.29994	448.29630	1366.86060	-116.78860	544.65930	1307.29236	57.68565	510.21213	1163.62097	290.62753	538.73981	1119.50964	296.46356	542.07220	1060.33630	200.33893	640.73700	1138.35327	241.96747	657.52368	1245.49817	256.04187	669.68884	1225.65271	183.73793	723.44318	1275.45276	271.88763	441.73993	1153.95020	-179.18167	450.66476	1073.07483	-194.92957	380.91599	1040.61401	-127.86996	444.30585	927.44647	-203.47314	532.58624	863.48901	-148.39780	482.70395	833.10492	-195.44441	577.52332	794.58154	-163.66684
6168	24.66800	398.15408	1416.74524	79.73593	454.28055	1363.23767	244.21710	448.19150	1366.83240	-116.85403	544.61646	1307.32239	57.62341	510.35373	1163.71313	290.57196	538.83398	1119.61755	296.40860	542.18469	1060.41150	200.23427	640.74683	1138.76929	241.79939	657.16125	1245.94397	255.85709	669.38434	1226.10999	183.56989	722.94891	1276.11328	271.75592	441.73911	1153.90613	-179.19847	450.59805	1073.07092	-194.93794	380.97787	1040.54907	-127.86555	444.41367	927.41168	-203.46590	532.74768	863.50916	-148.40739	482.86008	833.09143	-195.44077	577.72205	794.63202	-163.67755
6169	24.67200	398.07498	1416.68872	79.68546	454.22842	1363.24060	244.14551	448.08917	1366.80615	-116.91713	544.57434	1307.34839	57.56879	510.47534	1163.78687	290.50473	538.91602	1119.71973	296.36703	542.33325	1060.48914	200.18927	640.74005	1139.15564	241.65907	656.81580	1246.35913	255.66473	669.09808	1226.53076	183.42220	722.45312	1276.74768	271.63202	441.73276	1153.86768	-179.21536	450.50211	1073.07446	-194.94164	381.02985	1040.48938	-127.86759	444.52209	927.37842	-203.45915	532.89972	863.52673	-148.41309	483.01883	833.07806	-195.43167	577.91351	794.67664	-163.68806
6170	24.67600	398.01303	1416.61475	79.61938	454.16809	1363.24329	244.06480	447.98376	1366.78528	-116.97963	544.53156	1307.38098	57.51310	510.58386	1163.85559	290.44675	538.99750	1119.83398	296.33905	542.49536	1060.55469	200.15222	640.72949	1139.52051	241.54036	656.50299	1246.75183	255.48842	668.82196	1226.96851	183.26889	722.01385	1277.35242	271.50464	441.72021	1153.82983	-179.23972	450.40979	1073.09131	-194.96553	381.07990	1040.42969	-127.85691	444.62527	927.34454	-203.45100	533.04822	863.54932	-148.42018	483.17795	833.07019	-195.43037	578.10101	794.72668	-163.69957
6171	24.68000	397.89102	1416.61816	79.55387	454.11618	1363.25195	244.00078	447.88718	1366.76318	-117.03648	544.48975	1307.42175	57.44907	510.69046	1163.93518	290.40338	539.07367	1119.96985	296.32690	542.76410	1060.62878	200.22568	640.71155	1139.87268	241.43542	656.18512	1247.14758	255.34064	668.59204	1227.33716	183.15012	721.59784	1277.93591	271.40356	441.70416	1153.79138	-179.27173	450.34525	1073.10571	-194.99368	381.13892	1040.37146	-127.84983	444.72290	927.30975	-203.44743	533.19824	863.57104	-148.42468	483.32977	833.06482	-195.43095	578.28583	794.77832	-163.73260
6172	24.68400	397.85132	1416.50977	79.47100	454.06873	1363.25696	243.93666	447.78891	1366.74097	-117.09856	544.44800	1307.46582	57.36883	510.78891	1164.02087	290.34644	539.13953	1120.11438	296.30582	543.16534	1060.70337	200.45491	640.67560	1140.19482	241.35510	655.86627	1247.54590	255.19624	668.37744	1227.69153	183.04391	721.17303	1278.51917	271.30450	441.69159	1153.75513	-179.29977	450.30200	1073.12207	-195.02498	381.19229	1040.31433	-127.85175	444.82019	927.27112	-203.43788	533.34497	863.59332	-148.43425	483.47772	833.05536	-195.41788	578.46460	794.83252	-163.76593
6173	24.68800	397.72971	1416.51624	79.40548	454.02356	1363.26453	243.87260	447.68814	1366.72327	-117.16137	544.39691	1307.51587	57.27935	510.88644	1164.09668	290.29507	539.19580	1120.26306	296.27460	543.34552	1060.76599	200.51100	640.62152	1140.50537	241.30020	655.55731	1247.91504	255.05954	668.12506	1228.09021	182.91202	720.75317	1279.08496	271.15256	441.66418	1153.71631	-179.32776	450.27530	1073.13843	-195.07083	381.23090	1040.26550	-127.85452	444.90878	927.24182	-203.43387	533.48535	863.61633	-148.44928	483.61978	833.03748	-195.40788	578.63501	794.88373	-163.78954
6174	24.69200	397.58496	1416.54492	79.34507	453.98114	1363.27820	243.80865	447.58475	1366.69958	-117.22581	544.34741	1307.57300	57.17852	510.98120	1164.18506	290.25900	539.25226	1120.42456	296.23447	543.34070	1060.82825	200.42906	640.53735	1140.81079	241.24921	655.23004	1248.26501	254.93785	668.08008	1228.27893	182.83418	720.90649	1279.63159	270.75977	441.63275	1153.67480	-179.35890	450.35483	1073.05835	-194.95268	381.11432	1040.10681	-127.69330	444.99603	927.20795	-203.43793	533.61829	863.63660	-148.45969	483.74738	833.02209	-195.40092	578.79919	794.92755	-163.82512
6175	24.69600	397.51572	1416.48560	79.28278	453.94824	1363.29480	243.74583	447.47708	1366.67615	-117.28351	544.30536	1307.62891	57.07563	511.06924	1164.27344	290.22897	539.30524	1120.59802	296.19550	543.29535	1060.89575	200.29936	640.44775	1141.11853	241.18573	654.90369	1248.59290	254.80127	668.28754	1228.24402	182.81586	721.74646	1280.17578	270.09628	441.59857	1153.64368	-179.39571	450.46671	1072.94678	-194.79303	380.77841	1039.83557	-127.32559	445.06897	927.16956	-203.44162	533.73798	863.65460	-148.47446	483.86465	833.00983	-195.40492	578.96344	794.96790	-163.84151
6176	24.70000	397.39166	1416.48730	79.24322	453.93335	1363.30774	243.68581	447.36163	1366.66187	-117.34752	544.26044	1307.67566	56.97755	511.15479	1164.36987	290.19421	539.35980	1120.76819	296.15939	543.46466	1060.95630	200.37473	640.35126	1141.42810	241.11386	654.57214	1248.90698	254.66826	668.11261	1228.46790	182.72598	721.62531	1280.68433	269.84534	441.55991	1153.61267	-179.44009	450.40558	1072.98828	-194.94594	380.60300	1039.83252	-127.25130	445.13647	927.13446	-203.44862	533.85034	863.68024	-148.48854	483.98218	833.00293	-195.40527	579.10999	794.99738	-163.86676
6177	24.70400	397.35468	1416.37073	79.19304	453.92618	1363.32703	243.62192	447.23126	1366.64746	-117.40868	544.21533	1307.72046	56.89065	511.24197	1164.47595	290.17145	539.41205	1120.93811	296.11581	543.33136	1061.00940	200.18449	640.24866	1141.73853	241.03531	654.23511	1249.21387	254.55678	667.80725	1228.76233	182.62042	721.31635	1281.17419	269.68155	441.51501	1153.58374	-179.49263	450.48077	1072.89575	-194.85060	380.46228	1039.88684	-127.24754	445.20114	927.10748	-203.45731	533.95972	863.70087	-148.51076	484.09589	832.99957	-195.41159	579.24225	795.03754	-163.89459
6178	24.70800	397.28442	1416.31921	79.15604	453.92725	1363.34509	243.55388	447.09494	1366.63794	-117.47156	544.16943	1307.76306	56.80814	511.31628	1164.60437	290.16989	539.46710	1121.10205	296.06760	543.32349	1061.07520	200.12993	640.12659	1142.04565	240.96228	653.88123	1249.51807	254.44862	667.46307	1229.08521	182.50243	720.91687	1281.64429	269.55493	441.46252	1153.56909	-179.54268	450.30988	1073.04565	-195.17961	380.33032	1039.96216	-127.25969	445.26215	927.08746	-203.46680	534.05688	863.72937	-148.53358	484.20273	832.99725	-195.41360	579.36694	795.08301	-163.90633
6179	24.71200	397.20200	1416.28760	79.12546	453.93640	1363.36047	243.49632	446.96054	1366.63245	-117.53743	544.12445	1307.79773	56.73043	511.39999	1164.73596	290.17386	539.50311	1121.24084	296.03015	543.34656	1061.12732	200.09561	639.98993	1142.32886	240.88205	653.51892	1249.80530	254.35808	667.10059	1229.42493	182.37111	720.45093	1282.07019	269.42822	441.40787	1153.56323	-179.60287	450.34708	1072.98279	-195.11667	380.20157	1040.03162	-127.26799	445.31076	927.07434	-203.48106	534.14465	863.75916	-148.55725	484.30649	832.99872	-195.41840	579.47546	795.14337	-163.91119
